<?xml version="1.0" encoding="utf-8"?>
<!-- Generator: Adobe Illustrator 23.1.0, SVG Export Plug-In . SVG Version: 6.00 Build 0)  -->
<svg version="1.1" id="Layer_1" xmlns="http://www.w3.org/2000/svg" xmlns:xlink="http://www.w3.org/1999/xlink" x="0px" y="0px"
	 viewBox="0 0 800 600" style="enable-background:new 0 0 800 600;" xml:space="preserve">
<style type="text/css">
	.st0{fill:#FFFFFF;}
	.st1{fill:#FFE1A4;}
	.st2{clip-path:url(#SVGID_2_);}
	.st3{fill:#F1B2A9;}
	.st4{fill:#E6E7E8;}
	.st5{fill:#E48B25;}
	.st6{fill:#D98C82;}
	.st7{fill:#D1D3D4;}
	.st8{fill:#EEA020;}
	.st9{fill:#603913;}
	.st10{fill:#532F14;}
	.st11{fill:#482812;}
	.st12{fill:#75441C;}
	.st13{fill:#ED1C24;}
	.st14{fill:#BE1E2D;}
	.st15{fill:#F0EFEF;}
	.st16{fill:#42779B;}
	.st17{fill:#2A6282;}
	.st18{fill:#215068;}
	.st19{fill:#799991;}
	.st20{fill:#59786F;}
	.st21{clip-path:url(#SVGID_4_);}
	.st22{fill:#13242B;}
	.st23{fill:#0D191D;}
	.st24{fill:#9F1D26;}
	.st25{fill:#80C99B;}
	.st26{fill:#1685A8;}
	.st27{fill:#127A93;}
	.st28{fill:#0A5F72;}
	.st29{fill:#C6716B;}
	.st30{fill:#FABEB9;}
	.st31{fill:#8B5E3C;}
	.st32{fill:#FBB040;}
	.st33{fill:#F7941D;}
	.st34{fill:#D07528;}
	.st35{fill:#009444;}
	.st36{fill:#BAE2D9;}
	.st37{clip-path:url(#SVGID_6_);}
	.st38{fill:#1B75BC;}
	.st39{fill:#116AA6;}
	.st40{fill:#065589;}
	.st41{fill:#F19F1F;}
	.st42{fill:#B46728;}
	.st43{opacity:0.5;}
	.st44{clip-path:url(#SVGID_8_);}
	.st45{clip-path:url(#SVGID_10_);}
	.st46{fill:#56A070;}
</style>
<g>
	<rect class="st0" width="800" height="600"/>
	<g>
		<g>
			<g>
				<path class="st1" d="M219.1,116.1c-52.5,43.3-86.4,108.4-91.9,176.2c-2.1,25.9-0.2,52,4.8,77.5c8.9,45.8,29.1,91.2,65.4,120.6
					c16.2,13.2,35.2,22.8,54.6,30.6c69.2,28,146.9,34.6,219.9,19c58.6-12.6,115.9-40.9,151.9-88.8c15.4-20.5,26.5-43.9,34.7-68.2
					c24.6-73.5,20.4-158.3-20.3-224.3C555.9,25.1,331.4,23.4,219.1,116.1z"/>
			</g>
			<g>
				<defs>
					<path id="SVGID_9_" d="M219.1,116.1c-52.5,43.3-86.4,108.4-91.9,176.2c-2.1,25.9-0.2,52,4.8,77.5
						c8.9,45.8,29.1,91.2,65.4,120.6c16.2,13.2,35.2,22.8,54.6,30.6c69.2,28,146.9,34.6,219.9,19c58.6-12.6,115.9-40.9,151.9-88.8
						c15.4-20.5,26.5-43.9,34.7-68.2c24.6-73.5,20.4-158.3-20.3-224.3C555.9,25.1,331.4,23.4,219.1,116.1z"/>
				</defs>
				<clipPath id="SVGID_2_">
					<use xlink:href="#SVGID_9_"  style="overflow:visible;"/>
				</clipPath>
				<g class="st2">
					<g>
						<path class="st6" d="M534.9,475.5c7.6,8.4,18.2,14.2,29.5,14.7c3.4,0.1,7.1-0.3,9.9-2.3c4.4-3.2,5.5-9.3,5.7-14.7
							c0.6-18.5-4.9-36.6-10.3-54.3c0,0.7-25,4.6-27.4,5c-9,1.6-17.4,3-25.9,6.6c-0.4,0.2-0.8,0.3-1,0.7c-0.3,0.4-0.1,1,0,1.5
							C519.1,447.5,524.5,463.9,534.9,475.5z"/>
					</g>
					<g>
						<path class="st22" d="M509.8,524c-17.5-0.1-35-0.1-52.4-0.2c-48.4-3.4-97-8.7-145.5-8.5C304.3,563,295,617.8,300.8,666
							c35.6,6.6,70.9,11.5,107.6,11.3c10.5-0.1,120.1-6.2,119.5-14.1C524.7,616.6,518.6,570.1,509.8,524z"/>
					</g>
					<g>
						<path class="st23" d="M509.8,524c-17.5-0.1-35-0.1-52.4-0.2c-48.4-3.4-97-8.7-145.5-8.5C304.3,563,295,617.8,300.8,666
							c2.9,0.5,5.8,1.1,8.7,1.6c1.2-21.3,3.1-42.6,5.7-63.8c0.4-3.5,1-7.3,3.6-9.7c3.5-3.4,9.1-2.8,13.9-2.1
							c62.2,8.9,126.7,1.3,185-21.9C515.3,554.7,512.7,539.3,509.8,524z"/>
					</g>
					<g>
						<g>
							<path class="st23" d="M396.9,578.1c0.2,28.8,2.5,57.7,6.8,86.2c0.8,5.3,2,11.9,7.4,14.5c1.2,0.6,2.2-1.2,1-1.7
								c-4.7-2.3-5.7-8.1-6.4-12.8c-1-6.9-2-13.8-2.8-20.7c-1.6-13.9-2.7-27.8-3.4-41.7c-0.4-7.9-0.6-15.8-0.6-23.6
								C398.8,576.8,396.8,576.8,396.9,578.1L396.9,578.1z"/>
						</g>
					</g>
					<g>
						<g>
							<path class="st23" d="M424.1,575.9c-0.8,13.6-1.6,27.3-2.5,40.9c-0.8,13.4-1.6,26.8-3.3,40.2c-0.5,3.8-1,7.6-1.7,11.4
								c-0.3,1.6-0.4,3.4-1.1,4.9c-0.6,1.2-2.2,2.4-3.2,1c-0.8-1-2.2,0.4-1.4,1.4c1.5,1.9,4.5,1.2,5.8-0.5c0.8-1,1.1-2.2,1.4-3.4
								c0.4-1.8,0.7-3.7,1-5.6c1.1-7.1,2-14.3,2.6-21.5c1.3-14.7,2.1-29.4,3-44.1c0.5-8.3,1-16.5,1.5-24.8
								C426.2,574.6,424.2,574.6,424.1,575.9L424.1,575.9z"/>
						</g>
					</g>
					<g>
						<path class="st26" d="M455.3,586.9c10-1.9,19.3-7.1,29.2-8.5c11.1-1.6,18.7-4.1,28.2-10.7c1.5-1.1,3.1-2.2,4-3.9
							c0.7-1.5,0.8-3.2,0.9-4.8c2.3-73.7-9.8-147-8.4-220.2c0.3-17.2-5.4-41.2-23.2-48.5c-7-2.9-14.9-2.5-22.5-2.1
							c-38.5,2.2-78,1-115.8,7c-3.9,0.6-7.9,1.3-11.7,2.6c-8.1,2.8-15.1,8.6-19.3,16c-6.7,11.9-5.2,24.9-5.2,38
							c0,14.5-1.4,29.2-1.4,43.8c-0.1,52.2-2.7,104.5-7.7,156.4c-0.2,2.4-0.5,5,0.6,7.2c1,2,3,3.4,5,4.6
							c15.7,9.5,33.9,13.9,51.9,17.6C391.3,588.1,423.8,593,455.3,586.9z"/>
					</g>
					<g>
						<path class="st27" d="M469.3,577.8c-1.2,2-2.3,4.1-3.5,6.1c6.2-2.2,12.3-4.6,18.7-5.5c11.1-1.6,18.7-4.1,28.2-10.7
							c1.5-1.1,3.1-2.2,4-3.9c0.7-1.5,0.8-3.2,0.9-4.8c1.8-56.1-4.8-112-7.5-167.8c-6.1,35.4-5.2,72.3-9.7,108.4
							c-1.7,13.4-3.8,26.9-8.9,39.4C485.9,552.8,476.8,564.9,469.3,577.8z"/>
					</g>
					<g>
						<path class="st6" d="M274.3,437.6c13.8-11.5,25.4-24.5,38.4-36.6c5.6-5.2,10.6-9.6,15.4-15.8c1.9-2.5,15-17.1,14-19.7
							c-6.2-16.1-15.5-31-27.2-43.8c-25.3,15.8-48.5,34.7-71.6,53.5c-9,7.3-18,14.7-27,22c-8.9,7.3-18.1,14.9-22.9,25.4
							c-10,21.9,8.7,40.2,30.4,40.1C243,462.6,259.6,449.9,274.3,437.6z"/>
					</g>
					<g>
						<path class="st26" d="M285,325.7c-0.4,0.4-0.8,0.8-1.2,1.1c-22.3,20.4-44.8,40.7-67.2,61.1c-1,0.9-2,1.8-2.3,3.1
							c-0.4,1.2,0,2.6,0.4,3.8c7.4,24.2,25.9,44.9,49.2,54.9c5.8,2.5,12.7,4.2,18,0.9c1.8-1.1,3.2-2.7,4.6-4.2
							c4.3-4.8,8.6-9.5,12.9-14.3c15-16.6,31.2-33.9,43.3-52.9c8.2-12.9,14.3-27.7,14.8-43c0.1-3.5-6.1-42.7-6.9-42.7
							c-13.8,1.5-27.3,5.5-39.8,11.6C299.6,310.7,293.6,317.8,285,325.7z"/>
					</g>
					<g>
						<path class="st26" d="M547.9,336.3c0.3,0.5,0.5,1,0.8,1.5c14.8,26.4,29.8,52.7,44.7,79c0.6,1.1,1.3,2.3,1.2,3.6
							c-0.1,1.3-0.8,2.4-1.6,3.5c-14.6,20.7-38.6,34.5-63.9,36.7c-6.2,0.5-13.4,0-17.4-4.8c-1.3-1.6-2.2-3.5-3-5.4
							c-2.6-5.9-5.2-11.7-7.7-17.6c-9-20.5-19.1-42-24.6-63.8c-3.7-14.4-6.1-29-8.5-43.6c-1.1-6.4-1.4-13.6-3-19.8
							c-1.6-5.9-4.3-10.1-3.5-16.6c24-1.9,44.4,1.9,63.5,16.9C536,314.9,541.2,323.9,547.9,336.3z"/>
					</g>
					<g>
						<path class="st3" d="M444.7,206.6c2.2-13.9,3.1-24.4,14.8-33.3c2.6-2,5.9-3.9,9-2.8c2.8,0.9,4.5,4,4.6,6.9s-1.1,5.8-2.4,8.4
							c-5.8,11.6-15.1,21.5-26.3,28C443.9,211.4,444.3,208.9,444.7,206.6z"/>
					</g>
					<g>
						<path class="st27" d="M285,325.7c-0.4,0.4-0.8,0.8-1.2,1.1c-22.3,20.4-44.8,40.7-67.2,61.1c-1,0.9-2,1.8-2.3,3.1
							c-0.4,1.2,0,2.6,0.4,3.8c7.4,24.2,25.9,44.9,49.2,54.9c3,1.3,6.3,2.4,9.5,2.7c9.4-22.4,17.4-45.4,24-68.8
							c5.1-17.9,8-36.4,23.2-49.2c3.3-2.8,7.2-5.2,9.2-9c3-5.5,0.8-16.1-3.6-26.4c-5.3,1.7-10.4,3.8-15.4,6.3
							C299.6,310.7,293.6,317.8,285,325.7z"/>
					</g>
					<g>
						<path class="st3" d="M359.6,206.6c-2.2-13.9-3.1-24.4-14.8-33.3c-2.6-2-5.9-3.9-9-2.8c-2.8,0.9-4.5,4-4.6,6.9
							c-0.1,2.9,1.1,5.8,2.4,8.4c5.8,11.6,15.1,21.5,26.3,28C360.4,211.4,360,208.9,359.6,206.6z"/>
					</g>
					<g>
						<g>
							<path class="st6" d="M464.5,179.5c-1.8,1.6-3.6,3.2-5.4,4.8c-1.6,1.4-3.3,2.8-4.8,4.4c-2.4,2.6-4.7,6.2-3.2,9.9
								c0.5,1.2,2.4,0.7,1.9-0.5c-1.4-3.3,1.2-6.5,3.5-8.8c3-2.9,6.3-5.6,9.4-8.4C466.8,180.1,465.4,178.7,464.5,179.5L464.5,179.5z
								"/>
						</g>
					</g>
					<g>
						<g>
							<path class="st6" d="M340.2,179c4.2,1.7,7.8,4.6,10.4,8.3c1.3,1.8,2.4,3.9,3,6c0.3,1,0.8,3.9-0.8,4.1c-1.3,0.1-1.3,2.1,0,2
								c2.4-0.3,3.2-2.6,3.1-4.7c-0.2-2.5-1.5-5-2.7-7.1c-2.9-4.8-7.3-8.4-12.4-10.5C339.6,176.6,339.1,178.6,340.2,179L340.2,179z"
								/>
						</g>
					</g>
					<g>
						<path class="st3" d="M374,283.5c-0.3,1.2-0.6,2.2-0.9,2.9c-3,5.3-10.4,5.8-15.7,6.7c0.8,10.4,5.7,20.4,13.3,27.5
							c12.7,11.8,33.9,15.7,49.6,8.3c6.4-3,11.9-7.5,16.9-12.5c4.6-4.5,8.9-9.3,12.7-14.5c1.6-2.2,6-12.4,8.1-12.7
							c-5.4,0.9-10.9-2.4-14-6.9c-3.8-5.5-5.4-13.2-6.9-19.6c-3.4-14.1-6.8-28.3-10.2-42.4c-0.7-1.9-44.1,1.5-48.1,2.4
							C374.1,223.9,376.9,269.9,374,283.5z"/>
					</g>
					<g>
						<path class="st3" d="M403.2,254.5c21.4,0,39.5-13.1,45-32c7.3-25,13.3-53.3,4.8-78.3c-3.3-9.5-9.4-18.6-18.9-23.7
							c-9.1-5-20.3-5.8-31-5.5h0.1c-10.7-0.2-21.8,0.6-31,5.5c-9.4,5.1-15.6,14.2-18.9,23.7c-8.6,25-2.5,53.3,4.8,78.3
							C363.7,241.5,381.8,254.5,403.2,254.5z"/>
					</g>
					<g>
						<g>
							<path class="st6" d="M404.6,174.1c0.2,4.5,0.9,9,2.1,13.4c0.9,3.4,2,7.3,5.3,9.1c1.3,0.7,2.7,1.1,3.9,1.9
								c1.8,1.1,1.4,2.6,0.3,4.2c-2,3.1-5.4,5.3-9.1,6c-4.4,0.8-8.9-0.8-12.1-3.9c-0.9-0.9-2.3,0.5-1.4,1.4c6,5.9,15.5,6.1,21.7,0.5
								c2.3-2.1,5.6-6.3,2.6-9.2c-1.2-1.1-2.8-1.6-4.2-2.3c-1.9-0.9-3.1-2.2-3.9-4.2c-2.1-5.3-3-11.3-3.3-16.9
								C406.5,172.8,404.5,172.8,404.6,174.1L404.6,174.1z"/>
						</g>
					</g>
					<g>
						<g>
							<path class="st22" d="M365.1,164.1c2.7-4.3,7-7.3,11.9-8.4c5.3-1.1,10.9,0.3,15.1,3.6c1,0.8,2-1,1-1.7
								c-4.7-3.6-10.9-5-16.7-3.8c-5.4,1.1-10.2,4.6-13.1,9.3C362.7,164.1,364.4,165.1,365.1,164.1L365.1,164.1z"/>
						</g>
					</g>
					<g>
						<g>
							<path class="st22" d="M418.2,160.3c7.8-5.6,19.9-3.7,25.5,4.3c0.7,1.1,2.5,0.1,1.7-1c-6.1-8.8-19.4-11.3-28.2-5
								C416.1,159.3,417.1,161,418.2,160.3L418.2,160.3z"/>
						</g>
					</g>
					<path class="st22" d="M382.4,170.8c-2.2,0-4,1.8-4,4s1.8,4,4,4c2.2,0,4-1.8,4-4S384.6,170.8,382.4,170.8z"/>
					<path class="st22" d="M431.1,170.8c-2.2,0-4,1.8-4,4s1.8,4,4,4s4-1.8,4-4S433.3,170.8,431.1,170.8z"/>
					<g>
						<path class="st6" d="M427,267.7c3.4-2.2,6.5-4.7,9.4-7.5c-3.2-13.3-6.4-26.6-9.6-39.9c-0.7-1.9-44.1,1.5-48.1,2.4
							c-3,0.8-2.8,21.2-3.2,38.8c3,3.5,6.3,6.8,10.2,9.2C398.1,278.4,414.8,275.7,427,267.7z"/>
					</g>
					<g>
						<g>
							<path class="st3" d="M386.5,216.7c2.3,2.3,4.7,4.5,7.8,5.7c2.9,1.2,6.2,1.5,9.3,1.3c6.6-0.6,12.5-3.9,17.7-7.8
								c1-0.8,0-2.5-1-1.7c-4.8,3.5-10.3,6.8-16.3,7.5c-2.8,0.3-5.7,0.1-8.4-0.9c-3.1-1.1-5.4-3.2-7.7-5.5
								C387,214.3,385.6,215.7,386.5,216.7L386.5,216.7z"/>
						</g>
					</g>
					<g>
						<path class="st22" d="M464.2,137.4c-1.7-3.4-4.5-6.3-7.2-9.1c1.4-6,2.8-12.5,0.7-18.3c-3.3-9.3-12.1-10.9-20.7-11.8
							c-10.8-1.1-21-5.1-31.5-8.2c-10.4-3-21.6-5.1-32-2c-14.3,4.2-23.4,19.7-22.6,34.2c0.1,1.4,0.2,2.9-0.4,4.1
							c-0.6,1.1-1.6,1.8-2.6,2.5c-4.1,3.2-7.1,7.6-8.7,12.5c-2,6.6,0.8,9,2.9,14.5c2.6,6.7,3.2,14.6,4.6,21.6c1.5,7.5,6.2-1.6,7-4.4
							c1.3-4.5,0.6-9.5,1.2-14.1c1-7.2,2-14.5,3-21.7c0.2-1.5,0.5-3.2,1.7-4.1c1.7-1.3,25.8,6.8,30.6,7.4c11.1,1.4,22.5,1,33.6-1
							c5.3-1,10.5-2.4,15.6-4.1c7.5-2.5,7-3.6,9,3.7c3.5,12.5,4.2,25.7,8.3,38.3c0.5,1.4,1.1,3,2.4,3.5
							C461.5,182.2,466.9,142.8,464.2,137.4z"/>
					</g>
					<g>
						<path class="st3" d="M262.8,306.9c2.2-12.3,11.9-23,21.1-30.7c11.9-10,23.6-21.5,37.1-29.6c0.7-0.4,1.4-0.8,2.1-0.8
							c1.5-0.1,2.8,1.3,3.1,2.8c0.3,1.5-0.1,3-0.6,4.4c-1.7,4.9-5,9-8.4,12.9c-3,3.4-5.4,7.1-8.4,10.5c2-0.1,4.2-0.2,5.9,1
							c1.7,1.2,2.5,3.4,2.9,5.4c0.4,2.3,0.3,4.4-0.5,6.6c2.2,1.8,4.9,1.7,6.5,4.1c1.9,2.7,1.3,6.9,0.4,9.7c3,0.5,5.7,2.6,6.9,5.4
							c3.6,8.2-5.6,23.9-15.5,18.6c0.8,3.3-7.2,10.3-9.2,12.3c-4.2,4.2-6.8,7.3-9.8,12.8c-11.9,21.3-22.4,43.4-33.2,65.3
							c-5,10-10,20.1-17.2,28.6c-12.6,15-32.4,24-48,6.8c-20.2-22.3,6.5-51.4,20-69c12.4-16.1,25.8-31.5,38.2-47.6
							c7.1-9.2,5.7-15,6.3-25.9C262.4,309.3,262.6,308.1,262.8,306.9z"/>
					</g>
					<g>
						<path class="st0" d="M387.7,255.1c19.3,5.3,44.8-1.4,55.9-16.6c5.3-7.2,8.4-15.7,10.4-24.4c0.5-2.2,3.3-23.6,2.8-23.6
							c-19.9,0.8-39.6-3.8-59.3-3.1c-15.9,0.6-30.7,4.4-46.9,2.9c-2.7-0.2,2.6,27,3.4,29.3c3.9,11.7,11.4,22.2,21.3,29.6
							C378.8,251.9,383.1,253.8,387.7,255.1z"/>
					</g>
					<g>
						<path class="st4" d="M455.9,200c-2.8,9.6-6.8,18.8-12.5,26.9c-8,11.3-19.6,20.5-33.1,23.5c-13.5,3.1-28.8-0.6-38.1-10.9
							c-6.5-7.1-9.6-16.6-12.5-25.8c-2.5-7.8-5-15.6-7.5-23.4c-0.5,0-1.1-0.1-1.6-0.1c-2.7-0.2,2.6,27,3.4,29.3
							c3.9,11.7,11.4,22.2,21.3,29.6c3.6,2.7,7.9,4.6,12.5,5.9c19.3,5.3,44.8-1.4,55.9-16.6c5.3-7.2,8.4-15.7,10.4-24.4
							C454.2,212.9,455.2,206.1,455.9,200z"/>
					</g>
					<g>
						<path class="st4" d="M412.2,209.9c-3.2,3-5.7,7.1-10.7,6.8c-2.5-0.1-4.9-1.2-7.1-2.4c-2.6-1.5-5.4-4.5-3.8-7.1
							c3.8-0.1,7.6,1,11.2,0.9c1.8,0,10.7-3.3,11.3-3C414.9,206,413.6,208.6,412.2,209.9z"/>
					</g>
					<g>
						<g>
							<path class="st27" d="M346.2,297c1.4,11.8,6.8,23,15.2,31.4c8.8,8.8,20.7,14.2,33,15.2c10.6,0.9,21.4-1.6,31.1-5.8
								c9.8-4.2,18.9-10.4,26.2-18.2c7.9-8.4,13.9-18.9,15.5-30.5c0.2-1.3-1.7-1.8-1.9-0.5c-2.9,20.3-18.6,36.4-36.3,45.4
								c-8.9,4.5-18.8,7.5-28.7,7.8c-12.2,0.3-24.5-3.8-33.9-11.6c-9.9-8.3-16.5-20.3-18.1-33.2C348.1,295.7,346.1,295.7,346.2,297
								L346.2,297z"/>
						</g>
					</g>
					<g>
						<g>
							<path class="st27" d="M489,344.4c-2.3,29.3,1.4,59,10.9,86.9c2.6,7.8,5.7,15.5,9.3,22.9c0.5,1.2,2.3,0.1,1.7-1
								c-12.4-26.4-19.4-55.2-20.4-84.3c-0.3-8.2-0.1-16.3,0.5-24.4C491.1,343.1,489.1,343.1,489,344.4L489,344.4z"/>
						</g>
					</g>
					<g>
						<g>
							<path class="st27" d="M329.2,342.1c-6.6,20.3-12.3,41-17.2,61.8c-1.4,5.8-2.6,11.7-3.9,17.6c-0.3,1.3,1.7,1.8,1.9,0.5
								c4.4-20.9,9.6-41.7,15.7-62.2c1.7-5.7,3.5-11.5,5.3-17.2C331.6,341.4,329.6,340.9,329.2,342.1L329.2,342.1z"/>
						</g>
					</g>
					<g>
						<path class="st27" d="M521.3,448.5c-0.9,3.8-1.7,7.7-2.3,11.6c3.3,0.8,6.9,0.8,10.3,0.6c25.3-2.2,49.2-16,63.9-36.7
							c0.7-1.1,1.5-2.2,1.6-3.5c0.1-1.3-0.6-2.5-1.2-3.6c-13.5-24-27.1-47.9-40.6-71.9C540,378.7,529.5,413.3,521.3,448.5z"/>
					</g>
					<g>
						<path class="st3" d="M543.8,400.7c-0.1,0.4-0.1,0.6-0.1,0.8c-3.6,20.9-5.7,41.7-4.2,63c0.6,7.8,4.7,15.3,11.4,19.8
							c7,4.6,18.3,6.5,26.1,2.4c6.3-3.3,9.9-13.9,12-20.5c5.2-16.2,4.8-33.6,5.3-50.5c0.8-26.2,0.1-52.4-2-78.5
							c-13.3-0.2-26.5-1-39.8-0.4C551.9,337,545.2,391.7,543.8,400.7z"/>
					</g>
					<g>
						<g>
							<path class="st25" d="M573.5,357.4c-6.5-0.3-13.1-1.3-18.9-4.1c-7.6-3.6-13.7-10-18.2-17.1c-4.1-6.4-6-13.8-9.8-20.3
								c-3-5.1-6.7-9.2-8.5-15.1c-0.5-1.7-0.2-3.8,1.2-5c1-0.8,2.3-1,3.5-1c8.7,0.4,13.5,12.3,18.7,17.8c0.5,0.6,1.1,1.2,1.9,1.3
								c1,0.2,2-0.4,2.8-1.1c5.1-4.9,2.3-13.9,1.6-19.9c-1.2-10.4-2.1-20.8-2.2-31.3c0-1.8,0-3.6,0.7-5.2c0.7-1.6,2.1-3.1,3.9-3.2
								c9.5-0.6,11.9,34.1,12.3,40.4c0.6,0.4,1.5,0,1.9-0.6c0.4-0.6,0.4-1.4,0.4-2.1c-0.1-12.5,0.1-25,0.5-37.5c0-1.5,0.1-3,0.7-4.4
								c1.2-2.6,5.4-4.6,7.9-2.5c2,1.6,1.5,5.5,1.8,7.9c1.1,9.2,2,18.4,2,27.6c0,3.7-0.1,7.5,1.2,11c1.5-0.1,2.1-1.9,2.4-3.4
								c1-5.1,4.6-38.9,13.4-34.7c5.9,2.8,1.7,16.2,1.2,20.8c-0.8,6.7-1.6,13.3-2.3,20c-0.1,1.4-1.9,6,0.6,6.4
								c1.7-7.9,3.5-15.8,5.2-23.6c0.4-1.9,0.9-3.8,2-5.4c1.2-1.5,3.2-2.6,5.1-1.9c2.6,1,3,4.5,2.9,7.3c-0.6,15.2-2.2,30.3-4.9,45.3
								c-1.5,8.7-3.7,21-11.3,26.6C588.4,354.1,579.1,357.6,573.5,357.4z"/>
						</g>
						<g>
							<path class="st25" d="M547.6,371.7c15.5,2,31.1,2.2,46.6,0.7c-0.4-11.7-1-23.4-1.9-35.1c-13.3-0.2-26.5-1-39.8-0.4
								C552.2,337,549.8,354.7,547.6,371.7z"/>
						</g>
						<g>
							<g>
								<path class="st46" d="M543,315.3c3.6,2.4,8.2,2.6,12.3,3.8c3.7,1.1,7.3,2.8,10.5,4.9c6.6,4.3,12,10.5,15.2,17.7
									c0.5,1.2,2.2,0.2,1.7-1c-5.1-11.4-15.3-20.2-27.3-23.7c-3.8-1.1-8.1-1.3-11.5-3.5C542.9,312.8,541.9,314.5,543,315.3
									L543,315.3z"/>
							</g>
						</g>
						<g>
							<g>
								<path class="st46" d="M545.3,316.1c4.4-0.3,8.7-0.6,13.1-0.9c4.2-0.3,8.5-0.4,12.7-0.1c8.1,0.8,16.1,3.3,23.2,7.3
									c1.1,0.6,2.1-1.1,1-1.7c-7.2-4-15.1-6.6-23.3-7.5c-8.8-1-17.9,0.2-26.7,0.8C544,314.2,544,316.2,545.3,316.1L545.3,316.1z"
									/>
							</g>
						</g>
					</g>
					<g>
						<path class="st25" d="M315.3,327.2c9.9,5.3,19.1-10.4,15.5-18.6c-1.2-2.8-3.9-4.9-6.9-5.4c1-2.9,1.5-7.1-0.4-9.7
							c-1.7-2.4-4.3-2.3-6.5-4.1c0.8-2.1,0.9-4.3,0.5-6.6c-0.4-2.1-1.1-4.3-2.9-5.4c-1.7-1.2-4-1-5.9-1c3-3.4,5.3-7.1,8.4-10.5
							c3.4-3.8,6.7-8,8.4-12.9c0.5-1.4,0.9-2.9,0.6-4.4c-0.3-1.5-1.6-2.9-3.1-2.8c-0.8,0-1.5,0.4-2.1,0.8
							c-13.4,8.1-25.2,19.6-37.1,29.6c-9.2,7.7-18.9,18.4-21.1,30.7c-0.2,1.2-0.4,2.4-0.4,3.6c-0.6,10.8,0.9,16.7-6.3,25.9
							c-1.2,1.5-2.3,3-3.5,4.5c12.2,8.1,24.4,16.3,36.7,24.4c2.3-4.3,4.6-8.7,7-13c3.1-5.5,5.7-8.6,9.8-12.8
							C308.1,337.5,316.1,330.5,315.3,327.2z"/>
					</g>
					<g>
						<g>
							<path class="st3" d="M323.5,293.5c0.9,1.3,1.3,3.1,1.2,4.8C324.7,296.5,324.4,294.8,323.5,293.5c-0.3-0.4-0.7-0.8-1-1.1
								C322.8,292.6,323.2,293,323.5,293.5z"/>
						</g>
						<g>
							<path class="st3" d="M331.1,316.7c0.4-1.6,0.6-3.2,0.5-4.7C331.6,313.5,331.5,315.1,331.1,316.7z"/>
						</g>
						<g>
							<path class="st3" d="M317.2,328c-0.6-0.2-1.2-0.4-1.8-0.8C315.9,327.6,316.5,327.8,317.2,328z"/>
						</g>
						<g>
							<path class="st3" d="M316.9,289.4c1.8,1.4,3.9,1.7,5.5,3C320.8,291,318.7,290.8,316.9,289.4c0.7-1.9,0.9-3.8,0.6-5.7
								C317.8,285.6,317.7,287.5,316.9,289.4z"/>
						</g>
						<g>
							<path class="st3" d="M315.2,277.9c-0.2-0.2-0.4-0.3-0.6-0.5c-0.4-0.3-0.9-0.5-1.4-0.7c0.5,0.2,1,0.4,1.4,0.7
								C314.8,277.5,315,277.7,315.2,277.9z"/>
						</g>
						<g>
							<path class="st3" d="M323,245.8L323,245.8c0.8,0,1.4,0.3,2,0.8C324.5,246.1,323.8,245.7,323,245.8z"/>
						</g>
						<g>
							<path class="st3" d="M262.4,310.5c0-0.8,0.1-1.6,0.2-2.4C262.5,308.9,262.4,309.7,262.4,310.5z"/>
						</g>
						<g>
							<path class="st3" d="M329.6,320.4c-0.3,0.6-0.6,1.2-1,1.7C329,321.6,329.3,321,329.6,320.4z"/>
						</g>
						<g>
							<path class="st3" d="M320.9,246.6c0.6-0.3,1.1-0.7,1.8-0.8C322,246,321.5,246.3,320.9,246.6z"/>
						</g>
						<g>
							<path class="st3" d="M308.6,276.4c0.4-0.4,0.7-0.9,1.1-1.3C309.4,275.5,309,276,308.6,276.4L308.6,276.4z"/>
						</g>
						<g>
							<path class="st3" d="M330.5,318.6c-0.2,0.6-0.5,1.2-0.8,1.8C329.9,319.8,330.2,319.2,330.5,318.6z"/>
						</g>
						<g>
							<path class="st3" d="M278.7,280.9c-1.1,1.1-2.3,2.2-3.3,3.4C276.4,283.1,277.6,282,278.7,280.9z"/>
						</g>
						<g>
							<path class="st3" d="M318.4,248.2c-12.4,8-23.4,18.7-34.6,28.1c-1.7,1.4-3.5,3-5.2,4.6c1.7-1.6,3.4-3.2,5.2-4.6
								C295,266.8,306,256.2,318.4,248.2z"/>
						</g>
						<g>
							<path class="st3" d="M325.5,253c-0.4,1.2-1,2.4-1.6,3.5C324.5,255.4,325,254.2,325.5,253c0.5-1.4,0.9-2.9,0.6-4.4
								c-0.1-0.7-0.5-1.5-1.1-2c0.5,0.5,0.9,1.2,1.1,2C326.4,250,326,251.6,325.5,253z"/>
						</g>
						<g>
							<path class="st25" d="M323,245.8c-0.1,0-0.3,0-0.4,0.1C322.8,245.8,322.9,245.8,323,245.8L323,245.8z"/>
						</g>
						<g>
							<path class="st25" d="M310.2,276.4c-0.5,0-1,0-1.5,0l0,0C309.1,276.4,309.6,276.4,310.2,276.4z"/>
						</g>
						<g>
							<path class="st25" d="M268,293.9c-2.5,4.1-4.4,8.5-5.2,13.1c-0.1,0.4-0.1,0.8-0.2,1.2c0.1-0.4,0.1-0.8,0.2-1.2
								C263.6,302.3,265.5,297.9,268,293.9z"/>
						</g>
						<g>
							<path class="st25" d="M315.7,278.4c0.8,1,1.3,2.3,1.6,3.6C317,280.7,316.5,279.4,315.7,278.4z"/>
						</g>
						<g>
							<path class="st25" d="M262.1,319.5c-0.2,5.9-1.1,10.6-6,16.9c-0.6,0.8-1.2,1.6-1.9,2.4c0.6-0.8,1.2-1.6,1.9-2.4
								C261,330.1,261.9,325.4,262.1,319.5z"/>
						</g>
						<g>
							<path class="st25" d="M328,305.1c-1.2-0.9-2.6-1.6-4.1-1.9c0.2-0.7,0.5-1.5,0.6-2.4c-0.2,0.8-0.4,1.6-0.6,2.4
								C325.3,303.4,326.8,304.1,328,305.1z"/>
						</g>
						<g>
							<path class="st25" d="M309.7,275.1c2.5-3,4.6-6.3,7.3-9.3c1.7-1.9,3.4-3.9,4.8-6c-1.5,2.1-3.1,4.1-4.8,6
								C314.4,268.9,312.2,272.1,309.7,275.1z"/>
						</g>
						<g>
							<path class="st25" d="M323.2,327.3c-0.5,0.3-1.1,0.5-1.6,0.6C322.1,327.8,322.7,327.6,323.2,327.3z"/>
						</g>
						<g>
							<path class="st25" d="M268,293.9c0.8-1.4,1.7-2.7,2.7-4C269.7,291.2,268.8,292.5,268,293.9z"/>
						</g>
						<g>
							<path class="st25" d="M321.6,328c-0.6,0.2-1.1,0.3-1.7,0.3C320.4,328.2,321,328.1,321.6,328z"/>
						</g>
						<g>
							<path class="st6" d="M245.9,446.2c7.2-8.6,12.2-18.7,17.2-28.6c8.7-17.5,17.1-35.1,26.2-52.3c-3.3-2.2-6.6-4.4-10-6.6
								c-13.2,29.7-28.9,58.3-47,85.3c-4.6,6.9-9.9,14-16.7,18.4C226.6,463.1,237.7,455.9,245.9,446.2z"/>
						</g>
						<g>
							<path class="st25" d="M296.2,352.4c-1.2,2.2-2.5,4.5-3.7,6.7C293.8,356.9,295,354.6,296.2,352.4z"/>
						</g>
						<g>
							<path class="st25" d="M313.9,331.1c-0.4,0.6-0.9,1.2-1.4,1.8C313,332.3,313.5,331.7,313.9,331.1z"/>
						</g>
						<g>
							<path class="st25" d="M300.8,345.4c-0.8,1-1.5,2-2.3,3.2C299.3,347.5,300,346.4,300.8,345.4z"/>
						</g>
						<g>
							<path class="st25" d="M296.2,352.4C296.3,352.4,296.3,352.3,296.2,352.4c0.2-0.4,0.4-0.8,0.6-1.1
								C296.7,351.6,296.5,352,296.2,352.4C296.3,352.3,296.3,352.4,296.2,352.4z"/>
						</g>
						<g>
							<path class="st25" d="M304,341.8c0.7-0.7,1.4-1.5,2.2-2.3c0.6-0.6,1.8-1.7,3.2-3.1c-1.3,1.3-2.5,2.5-3.2,3.1
								C305.4,340.3,304.6,341.1,304,341.8z"/>
						</g>
						<g>
							<path class="st25" d="M312.5,333c-1,1.2-2.2,2.4-3.2,3.5C310.4,335.4,311.5,334.2,312.5,333z"/>
						</g>
						<g>
							<path class="st25" d="M289.3,365.3c1.1-2.1,2.2-4.1,3.3-6.2C291.5,361.1,290.4,363.2,289.3,365.3L289.3,365.3z"/>
						</g>
						<g>
							<path class="st46" d="M294.2,337.5c-7.1,3.6-10.6,11.4-13.8,18.7c-0.4,0.8-0.7,1.7-1.1,2.5c3.3,2.2,6.6,4.4,10,6.6
								c1.1-2.1,2.2-4.1,3.3-6.2c1.2-2.2,2.4-4.5,3.7-6.7c0,0,0-0.1,0-0.1c0.2-0.3,0.4-0.7,0.6-1c0.6-1,1.1-1.9,1.7-2.7
								c0.7-1.1,1.5-2.2,2.3-3.2c1-1.2,2-2.4,3.1-3.6c0.7-0.7,1.4-1.5,2.2-2.3c0.6-0.6,1.8-1.7,3.2-3.1c1.1-1.1,2.2-2.3,3.2-3.5
								c0.5-0.6,1-1.2,1.4-1.8c0.5-0.8,0.9-1.5,1.2-2.2C309.5,334.2,300.8,334.2,294.2,337.5z"/>
						</g>
					</g>
					<g>
						<g>
							<path class="st46" d="M308.8,275.5c-7.1,2.2-13.8,5.4-20.1,9.4c-1.1,0.7-0.1,2.4,1,1.7c6.1-3.9,12.7-7,19.6-9.2
								C310.5,277,310,275.1,308.8,275.5L308.8,275.5z"/>
						</g>
					</g>
					<g>
						<g>
							<path class="st46" d="M317.5,289.9c-6.4,0.6-12.6,2.8-18,6.4c-1.1,0.7-0.1,2.5,1,1.7c5-3.4,10.9-5.6,17-6.2
								C318.8,291.8,318.8,289.8,317.5,289.9L317.5,289.9z"/>
						</g>
					</g>
					<g>
						<g>
							<path class="st46" d="M324.1,303.1c-4.7,2.3-9.5,4.6-14.2,6.9c-1.2,0.6-0.1,2.3,1,1.7c4.7-2.3,9.5-4.6,14.2-6.9
								C326.3,304.2,325.3,302.5,324.1,303.1L324.1,303.1z"/>
						</g>
					</g>
					<g>
						<path class="st6" d="M556.5,479.8c-4.7-7.8-6-17.2-6.9-26.3c-2.6-27.7,0-55.4-1.9-83c-1.7,13.2-3.4,26.1-4,30.1
							c-0.1,0.4-0.1,0.6-0.1,0.8c-3.6,20.9-5.7,41.7-4.2,63c0.6,7.8,4.7,15.3,11.4,19.8c4,2.6,9.4,4.3,14.7,4.6
							C561.9,486.7,558.7,483.5,556.5,479.8z"/>
					</g>
				</g>
			</g>
		</g>
		<g>
			<g>
				<path class="st25" d="M156.6,100.1c-17.3,14.3-28.4,35.7-30.2,58c-0.7,8.5-0.1,17.1,1.6,25.5c2.9,15.1,9.6,30,21.5,39.7
					c5.3,4.3,11.6,7.5,18,10.1c22.8,9.2,48.3,11.4,72.3,6.2c19.3-4.1,38.1-13.5,50-29.2c5.1-6.7,8.7-14.4,11.4-22.4
					c8.1-24.2,6.7-52.1-6.7-73.8C267.4,70.1,193.5,69.6,156.6,100.1z"/>
			</g>
			<g>
				<g>
					<path class="st0" d="M204.1,193.8c9.1,2,20.6,3,28.5-0.5c10.8-4.7,19.8-11.7,30.4-16.5c0.6-0.3,1.1-0.5,1.4-1.1
						c0.3-0.5,0.2-1,0.2-1.5c-0.4-10.4-0.9-20.8-1.3-31.2c-8.9,2.4-17.9,0.9-27,0.1c-8.3-0.8-16.5-1.7-24.8-1.4
						c-7.7,0.3-15.4,1.7-23,2.5c-3.2,0.3-17.6-1.7-18.8,0.2c-0.8,1.2-0.8,2.7-0.7,4.2c0.4,8.2,0.8,16.5,1.3,24.7
						c0,0.6,0.1,1.2,0.3,1.8c0.2,0.7,0.7,1.2,1.2,1.7C180.3,186.6,191.7,191.1,204.1,193.8z"/>
				</g>
				<g>
					<g>
						<path class="st0" d="M176.8,147.1c-3-2.6-5.9-5.2-8.9-7.8c-2.6-2.2-5.2-4.5-8.3-6.1c-5.3-2.7-11.9-2.7-16,1.9
							c-3.4,3.8-4.5,9.3-3.5,14.2c1.3,6.3,5.6,11.6,10.5,15.5c6.3,4.9,13.8,8.2,20.9,11.8c1.1,0.6,2.2-1.1,1-1.7
							c-10.6-5.4-24-10.5-29.2-22.1c-2-4.6-2.2-9.9,0.4-14.3c1.1-2,2.9-3.6,5-4.5c3-1.2,6.3-0.6,9.2,0.6c3.3,1.4,6,3.8,8.6,6.1
							c3,2.6,5.9,5.2,8.9,7.8C176.3,149.4,177.7,148,176.8,147.1L176.8,147.1z"/>
					</g>
				</g>
				<g>
					<g>
						<path class="st0" d="M259,147.8c4.9-4.5,10.2-8.8,15.7-12.5c2.4-1.7,5.5-4.1,8.7-3.5c3,0.6,4.7,4,5.4,6.7
							c1.6,6.2-1.1,12.3-4.3,17.5c-2.9,4.8-6.6,9.1-10.9,12.7c-4.8,3.9-10.5,6.6-16.7,7c-1.3,0.1-1.3,2.1,0,2
							c12.5-0.8,22.5-9.8,29-19.9c3.6-5.7,6.5-12.3,5.1-19.2c-0.6-2.9-2.1-5.9-4.5-7.6c-2.7-1.9-6-1.2-8.8,0.3
							c-3.6,1.9-6.9,4.5-10.2,7c-3.4,2.6-6.6,5.3-9.8,8.2C256.7,147.2,258.1,148.6,259,147.8L259,147.8z"/>
					</g>
				</g>
				<g>
					<path class="st4" d="M264.5,175.8c0.3-0.5,0.2-1,0.2-1.5c-0.4-10.4-0.9-20.8-1.3-31.2c0,0,0,0,0,0c-0.1,0.6-0.1,1.2-0.2,1.7
						c-0.4,7.5-0.9,15-1.3,22.5c-0.2,2.6-0.4,5.5-2.3,7.3c-0.9,0.8-2.1,1.3-3.2,1.8c-5.1,2.1-10.1,4.1-15.2,6.2
						c-7.9,3.2-16.1,6.5-24.6,6.9c-9.3,0.4-18.3-2.7-27-5.7c-5.7-1.9-11.7-4.2-15-9.3c-1.7-2.6-2.4-5.7-2.9-8.8
						c-1.2-7-1.6-14.1-1.2-21.2l-1.3,1.5c-0.1,0.8-0.1,1.7-0.1,2.5c0.4,8.2,0.8,16.5,1.3,24.7c0,0.6,0.1,1.2,0.3,1.8
						c0.2,0.7,0.7,1.2,1.2,1.7c8.6,9.7,19.9,14.2,32.4,17c9.1,2,20.6,3,28.5-0.5c10.8-4.7,19.8-11.7,30.4-16.5
						C263.6,176.6,264.2,176.3,264.5,175.8z"/>
				</g>
				<g>
					<path class="st4" d="M206.6,155.9c9.3,1.6,18.4,1.9,27.6-1.9c0.9-0.4,2-1.1,1.7-2.1c-0.3-1-1.8-0.9-2.8-0.7
						c-7.8,2.1-16.8,2.4-24.8,1.5c-4-0.4-7.9-1.6-12-1.2c-0.2,0.7,0.2,1.5,0.8,2s1.4,0.6,2.1,0.8
						C201.7,154.9,204.2,155.5,206.6,155.9z"/>
				</g>
				<g>
					<path class="st4" d="M205.6,171.4c10.2,1.8,20.4,2.1,30.5-2.1c1-0.4,2.2-1.2,1.9-2.3c-0.3-1.1-2-1-3.1-0.7
						c-8.7,2.3-18.6,2.7-27.5,1.7c-4.4-0.5-8.8-1.7-13.2-1.4c-0.2,0.8,0.2,1.7,0.9,2.2s1.5,0.7,2.3,0.9
						C200.2,170.3,202.9,170.9,205.6,171.4z"/>
				</g>
			</g>
		</g>
		<g>
			<path class="st4" d="M534.6,100.1c-17.3,14.3-28.4,35.7-30.2,58c-0.7,8.5-0.1,17.1,1.6,25.5c2.9,15.1,9.6,30,21.5,39.7
				c5.3,4.3,11.6,7.5,18,10.1c22.8,9.2,48.3,11.4,72.3,6.2c19.3-4.1,38.1-13.5,50-29.2c5.1-6.7,8.7-14.4,11.4-22.4
				c8.1-24.2,6.7-52.1-6.7-73.8C645.4,70.1,571.5,69.6,534.6,100.1z"/>
		</g>
		<g>
			<g>
				<path class="st25" d="M598.4,204.9c-6.5-0.3-13.1-1.3-18.9-4.1c-7.6-3.6-13.7-10-18.2-17.1c-4.1-6.4-6-13.8-9.8-20.3
					c-3-5.1-6.7-9.2-8.5-15.1c-0.5-1.7-0.2-3.8,1.2-5c1-0.8,2.3-1,3.5-1c8.7,0.4,13.5,12.3,18.7,17.8c0.5,0.6,1.1,1.2,1.9,1.3
					c1,0.2,2-0.4,2.8-1.1c5.1-4.9,2.3-13.9,1.6-19.9c-1.2-10.4-2.1-20.8-2.2-31.3c0-1.8,0-3.6,0.7-5.2c0.7-1.6,2.1-3.1,3.9-3.2
					c9.5-0.6,11.9,34.1,12.3,40.4c0.6,0.4,1.5,0,1.9-0.6c0.4-0.6,0.4-1.4,0.4-2.1c-0.1-12.5,0.1-25,0.5-37.5c0-1.5,0.1-3,0.7-4.4
					c1.2-2.6,5.4-4.6,7.9-2.5c2,1.6,1.5,5.5,1.8,7.9c1.1,9.2,2,18.4,2,27.6c0,3.7-0.1,7.5,1.2,11c1.5-0.1,2.1-1.9,2.4-3.4
					c1-5.1,4.6-38.9,13.4-34.7c5.9,2.8,1.7,16.2,1.2,20.8c-0.8,6.7-1.6,13.3-2.3,20c-0.1,1.4-1.9,6,0.6,6.4
					c1.7-7.9,3.5-15.8,5.2-23.6c0.4-1.9,0.9-3.8,2-5.4c1.2-1.5,3.2-2.6,5.1-1.9c2.6,1,3,4.5,2.9,7.3c-0.6,15.2-2.2,30.3-4.9,45.3
					c-1.5,8.7-3.7,21-11.3,26.6C613.3,201.6,604,205.1,598.4,204.9z"/>
			</g>
			<g>
				<path class="st25" d="M572.5,219.2c15.5,2,31.1,2.2,46.6,0.7c-0.4-11.7-1-23.4-1.9-35.1c-13.3-0.2-26.5-1-39.8-0.4
					C577.1,184.5,574.7,202.2,572.5,219.2z"/>
			</g>
			<g>
				<g>
					<path class="st46" d="M567.9,162.7c3.6,2.4,8.2,2.6,12.3,3.8c3.7,1.1,7.3,2.8,10.5,4.9c6.6,4.3,12,10.5,15.2,17.7
						c0.5,1.2,2.2,0.2,1.7-1c-5.1-11.4-15.3-20.2-27.3-23.7c-3.8-1.1-8.1-1.3-11.5-3.5C567.8,160.3,566.8,162,567.9,162.7
						L567.9,162.7z"/>
				</g>
			</g>
			<g>
				<g>
					<path class="st46" d="M570.2,163.6c4.4-0.3,8.7-0.6,13.1-0.9c4.2-0.3,8.5-0.4,12.7-0.1c8.1,0.8,16.1,3.3,23.2,7.3
						c1.1,0.6,2.1-1.1,1-1.7c-7.2-4-15.1-6.6-23.3-7.5c-8.8-1-17.9,0.2-26.7,0.8C568.9,161.7,568.9,163.7,570.2,163.6L570.2,163.6z"
						/>
				</g>
			</g>
		</g>
	</g>
</g>
</svg>
